<?xml version="1.0" standalone="no"?>
<!DOCTYPE svg PUBLIC "-//W3C//DTD SVG 20010904//EN"
 "http://www.w3.org/TR/2001/REC-SVG-20010904/DTD/svg10.dtd">
<svg version="1.0" xmlns="http://www.w3.org/2000/svg"
 width="128.000000pt" height="121.000000pt" viewBox="0 0 128.000000 121.000000"
 preserveAspectRatio="xMidYMid meet">

<g transform="translate(0.000000,121.000000) scale(0.100000,-0.100000)"
fill="#000000" stroke="none">
<path d="M503 966 c-120 -28 -192 -76 -233 -156 -44 -87 -51 -287 -14 -395 26
-75 101 -145 185 -172 181 -59 434 -28 532 65 90 85 122 294 70 462 -25 82
-98 151 -189 180 -89 28 -262 36 -351 16z m223 -237 l74 -40 0 -92 0 -92 -75
-43 c-72 -42 -75 -43 -104 -27 -41 21 -39 28 7 21 30 -5 47 0 92 27 l55 33 3
80 2 79 -66 36 -67 36 -66 -38 -66 -38 5 -77 c5 -80 19 -104 54 -91 13 5 16
21 16 82 0 43 4 75 10 75 6 0 10 -35 10 -85 0 -74 -2 -86 -20 -95 -27 -14 -88
14 -96 44 -3 12 -4 53 -2 91 l3 69 75 43 c41 24 77 43 79 43 2 0 37 -18 77
-41z m14 -89 c9 -16 8 -20 -5 -20 -8 0 -15 5 -15 10 0 6 -16 10 -36 10 -50 0
-39 -22 17 -36 48 -12 63 -40 34 -64 -31 -25 -115 -10 -115 21 0 12 28 11 32
-1 5 -17 45 -20 65 -5 20 15 18 17 -47 33 -35 8 -47 28 -36 58 4 9 20 14 50
14 35 0 48 -5 56 -20z"/>
</g>
</svg>
